<svg width="56" height="62" viewBox="0 0 56 62" fill="none" xmlns="http://www.w3.org/2000/svg">
<path d="M51.1238 8.77832C49.8396 6.79768 48.0842 5.21155 46.0352 4.18048C43.9861 3.14941 41.7163 2.71002 39.4554 2.90677C34.1376 3.546 32.7518 6.14535 28 6.64144C23.2483 6.14547 21.8623 3.546 16.5446 2.90677C14.2837 2.71005 12.0138 3.14947 9.96481 4.18053C7.91579 5.2116 6.16034 6.79771 4.87614 8.77832C1.82598 13.7127 2.49545 21.0832 6.88091 26.7227C7.83834 27.9147 8.39927 29.4071 8.47733 30.9699C8.74034 38.1404 10.028 58.3126 16.2066 59.6784C20.9726 60.732 18.4527 36.6059 28 36.918C37.5473 36.6056 35.0273 60.7318 39.7932 59.6784C45.972 58.3126 47.2597 38.1404 47.5226 30.9699C47.6006 29.4071 48.1616 27.9147 49.119 26.7227C53.5045 21.0832 54.1741 13.7127 51.1238 8.77832Z" fill="white"/>
<path d="M51.1239 8.77829C49.7383 5.50351 37.3267 -0.225596 39.4554 2.90674C42.8399 7.88673 44.1085 17.2344 43.0569 27.4143C42.153 36.1632 37.0003 55.3846 37.0003 55.3846C36.5976 57.9993 38.0732 60.3132 39.0243 60.1534C41.6518 59.7119 47.8017 51.2351 47.5224 30.9699C47.5637 29.3988 48.1293 27.894 49.1188 26.7227C51.0242 24.2403 52.2243 21.2356 52.5793 18.0586C52.9343 14.8816 52.4296 11.6631 51.1239 8.77829Z" fill="#D0CFCE"/>
<path d="M51.1238 8.77832C49.8396 6.79769 48.0842 5.21155 46.0352 4.18048C43.9861 3.14941 41.7163 2.71002 39.4554 2.90677C34.1376 3.546 32.7518 6.14535 28 6.64144C23.2483 6.14547 21.8623 3.546 16.5446 2.90677C14.2837 2.71005 12.0138 3.14947 9.96481 4.18053C7.91579 5.2116 6.16034 6.79771 4.87614 8.77832C1.82598 13.7127 2.49545 21.0832 6.88091 26.7227C7.83834 27.9147 8.39927 29.4071 8.47733 30.9699C8.74034 38.1404 10.028 58.3126 16.2066 59.6784C20.9726 60.732 18.4527 36.6059 28 36.918C37.5473 36.6056 35.0273 60.7318 39.7932 59.6784C45.972 58.3126 47.2597 38.1404 47.5226 30.9699C47.6006 29.4071 48.1616 27.9147 49.119 26.7227C53.5045 21.0832 54.1741 13.7127 51.1238 8.77832V8.77832Z" stroke="#0F2650" stroke-width="4" stroke-miterlimit="10"/>
</svg>
