<svg width="49" height="68" viewBox="0 0 49 68" fill="none" xmlns="http://www.w3.org/2000/svg">
<path d="M44.3865 21.2043C43.2821 19.4623 41.7724 18.0673 40.0102 17.1605C38.2481 16.2537 36.296 15.8672 34.3516 16.0403C29.7784 16.6025 28.5865 18.8886 24.5 19.3249C20.4135 18.8887 19.2216 16.6025 14.6484 16.0403C12.704 15.8673 10.7519 16.2537 8.98974 17.1606C7.22758 18.0674 5.71789 19.4623 4.61348 21.2043C1.99034 25.5441 2.56608 32.0263 6.33758 36.9862C7.16098 38.0346 7.64337 39.3471 7.7105 40.7216C7.93669 47.028 9.04404 64.7692 14.3577 65.9705C18.4565 66.8971 16.2893 45.6784 24.5 45.9529C32.7106 45.6782 30.5435 66.8969 34.6422 65.9705C39.9559 64.7692 41.0634 47.028 41.2895 40.7216C41.3565 39.3471 41.8389 38.0346 42.6624 36.9862C46.4339 32.0263 47.0097 25.5441 44.3865 21.2043Z" fill="white"/>
<path d="M43.7081 21.0602C42.565 18.1324 32.3254 13.0102 34.0816 15.8107C36.8738 20.2631 37.9204 28.6206 37.0528 37.7221C36.3072 45.5441 32.0562 62.7294 32.0562 62.7294C31.7239 65.0671 32.9412 67.1359 33.726 66.993C35.8936 66.5983 40.9673 59.0195 40.7369 40.901C40.771 39.4963 41.2376 38.1509 42.0539 37.1037C43.6259 34.8843 44.616 32.1979 44.9089 29.3574C45.2017 26.517 44.7853 23.6395 43.7081 21.0602Z" fill="#D0CFCE"/>
<path d="M44.3865 21.2043C43.2821 19.4623 41.7724 18.0673 40.0102 17.1605C38.2481 16.2537 36.296 15.8672 34.3516 16.0403C29.7784 16.6025 28.5865 18.8886 24.5 19.3249C20.4135 18.8887 19.2216 16.6025 14.6484 16.0403C12.704 15.8673 10.7519 16.2537 8.98974 17.1606C7.22758 18.0674 5.71789 19.4623 4.61348 21.2043C1.99034 25.5441 2.56608 32.0263 6.33758 36.9862C7.16098 38.0346 7.64337 39.3471 7.7105 40.7216C7.93669 47.028 9.04404 64.7692 14.3577 65.9705C18.4565 66.8971 16.2893 45.6784 24.5 45.9529C32.7106 45.6782 30.5435 66.8969 34.6422 65.9705C39.9559 64.7692 41.0634 47.028 41.2895 40.7216C41.3565 39.3471 41.8389 38.0346 42.6624 36.9862C46.4339 32.0263 47.0097 25.5441 44.3865 21.2043V21.2043Z" stroke="#0F2650" stroke-width="4" stroke-miterlimit="10"/>
<path d="M25.2355 22.5204L26.4693 20.7723L27.6758 19.0627" stroke="#0F2650" stroke-width="0.55767" stroke-linecap="round"/>
<path d="M23.2255 22.0481C21.6694 22.3203 20.6302 23.7927 20.9045 25.3368C21.1788 26.8809 22.6627 27.9121 24.2188 27.6399C25.775 27.3677 26.8141 25.8953 26.5399 24.3512C26.2656 22.8071 24.7817 21.776 23.2255 22.0481Z" fill="#D0CFCE"/>
<path fill-rule="evenodd" clip-rule="evenodd" d="M29.6694 19.1335L26.9994 17.2781L38.4879 0.999974L41.1579 2.85533L29.6694 19.1335Z" fill="#0F2650"/>
<path d="M25.8229 18.9361L28.5012 20.7972L29.6735 19.1362L26.9951 17.275L25.8229 18.9361Z" fill="#01CFC9"/>
</svg>
